<svg width="63" height="44" viewBox="0 0 63 44" fill="none" xmlns="http://www.w3.org/2000/svg">
<g id="&#240;&#159;&#166;&#134; icon &#34;User Friends&#34;">
<path id="Vector" d="M18.7868 21.9179C24.8435 21.9179 29.7457 17.0157 29.7457 10.9589C29.7457 4.90217 24.8435 0 18.7868 0C12.73 0 7.82782 4.90217 7.82782 10.9589C7.82782 17.0157 12.73 21.9179 18.7868 21.9179ZM26.3015 25.049H25.4893C23.4541 26.0275 21.1938 26.6146 18.7868 26.6146C16.3797 26.6146 14.1292 26.0275 12.0842 25.049H11.2721C5.04894 25.049 0 30.098 0 36.3211V39.1391C0 41.7321 2.10373 43.8358 4.69669 43.8358H32.8768C35.4698 43.8358 37.5735 41.7321 37.5735 39.1391V36.3211C37.5735 30.098 32.5246 25.049 26.3015 25.049ZM46.9669 21.9179C52.1528 21.9179 56.3603 17.7104 56.3603 12.5245C56.3603 7.33858 52.1528 3.13113 46.9669 3.13113C41.781 3.13113 37.5735 7.33858 37.5735 12.5245C37.5735 17.7104 41.781 21.9179 46.9669 21.9179ZM51.6636 25.049H51.2918C49.9317 25.5187 48.4933 25.8318 46.9669 25.8318C45.4405 25.8318 44.0021 25.5187 42.642 25.049H42.2702C40.2741 25.049 38.4346 25.6263 36.8201 26.5559C39.2076 29.1293 40.7047 32.5442 40.7047 36.3211V40.0784C40.7047 40.2937 40.6557 40.4992 40.646 40.7047H57.9259C60.5188 40.7047 62.6226 38.6009 62.6226 36.008C62.6226 29.9512 57.7204 25.049 51.6636 25.049Z" fill="#126035"/>
</g>
</svg>
