<svg width="45" height="45" viewBox="0 0 45 45" fill="none" xmlns="http://www.w3.org/2000/svg">
<g id="Calendar">
<g id="calendar">
<path id="Vector" d="M35.1562 2.8125H9.84375C5.9625 2.8125 2.8125 5.9625 2.8125 9.84375V13.9992H42.1875V9.84375C42.1875 5.9625 39.0375 2.8125 35.1562 2.8125ZM11.3667 10.7227C10.253 10.7227 9.34875 9.81984 9.34875 8.70469C9.34875 7.58953 10.253 6.68672 11.3667 6.68672C12.4819 6.68672 13.3847 7.58953 13.3847 8.70469C13.3847 9.81984 12.4819 10.7227 11.3667 10.7227ZM33.6333 10.7227C32.5181 10.7227 31.6153 9.81984 31.6153 8.70469C31.6153 7.58953 32.5181 6.68672 33.6333 6.68672C34.747 6.68672 35.6512 7.58953 35.6512 8.70469C35.6512 9.81984 34.747 10.7227 33.6333 10.7227ZM2.8125 35.1562C2.8125 39.0375 5.9625 42.1875 9.84375 42.1875H35.1562C39.0375 42.1875 42.1875 39.0375 42.1875 35.1562V15.1945H2.8125V35.1562ZM16.6289 25.9959C17.602 25.2352 19.0097 25.4053 19.7733 26.377L20.9053 27.8213L25.5839 24.0525C26.5458 23.2734 27.9562 23.4267 28.7325 24.3914C29.5087 25.3547 29.3569 26.7652 28.3936 27.54L21.9473 32.7333C21.548 33.0553 21.0516 33.2297 20.5425 33.2297C20.4581 33.2297 20.3723 33.2241 20.288 33.2156C19.6917 33.1481 19.1489 32.8444 18.7791 32.3719L16.2464 29.1403C15.4842 28.1672 15.6558 26.7595 16.6289 25.9959Z" fill="#126035"/>
</g>
</g>
</svg>
