<svg width="56" height="43" viewBox="0 0 56 43" fill="none" xmlns="http://www.w3.org/2000/svg">
<g id="&#240;&#159;&#166;&#134; icon &#34;comments&#34;">
<path id="Vector" d="M39.9275 15.3567C39.9275 6.87214 30.9918 0 19.9638 0C8.9357 0 0 6.87214 0 15.3567C0 18.6488 1.35331 21.6818 3.64723 24.1869C2.3611 27.0854 0.239949 29.389 0.211155 29.4178C0 29.6385 -0.0575878 29.9648 0.0671857 30.2528C0.191959 30.5407 0.460702 30.7135 0.767837 30.7135C4.28069 30.7135 7.18887 29.5329 9.28123 28.314C12.3718 29.8209 16.0286 30.7135 19.9638 30.7135C30.9918 30.7135 39.9275 23.8413 39.9275 15.3567ZM51.637 36.4723C53.931 33.9768 55.2843 30.9342 55.2843 27.6421C55.2843 21.2211 50.1494 15.7215 42.8741 13.4275C42.9605 14.061 42.9989 14.7041 42.9989 15.3567C42.9989 25.521 32.6619 33.7848 19.9638 33.7848C18.9272 33.7848 17.9194 33.708 16.9212 33.6025C19.9446 39.1213 27.0471 42.9989 35.3205 42.9989C39.2557 42.9989 42.9125 42.1159 46.003 40.5994C48.0954 41.8183 51.0036 42.9989 54.5164 42.9989C54.8236 42.9989 55.1019 42.8165 55.2171 42.5382C55.3419 42.2598 55.2843 41.9335 55.0731 41.7031C55.0443 41.6744 52.9232 39.3804 51.637 36.4723Z" fill="#126035"/>
</g>
</svg>
