<svg width="37" height="45" viewBox="0 0 37 45" fill="none" xmlns="http://www.w3.org/2000/svg">
<g id="&#240;&#159;&#166;&#134; icon &#34;Stopwatch&#34;">
<path id="Vector" d="M36.5625 26.7188C36.5625 36.8174 28.3799 45 18.2812 45C8.18262 45 0 36.8174 0 26.7188C0 17.5781 6.70606 10.002 15.4688 8.65723V5.625H13.0078C12.4277 5.625 11.9531 5.15039 11.9531 4.57031V1.05469C11.9531 0.474609 12.4277 0 13.0078 0H23.5547C24.1348 0 24.6094 0.474609 24.6094 1.05469V4.57031C24.6094 5.15039 24.1348 5.625 23.5547 5.625H21.0938V8.65723C24.3896 9.16699 27.3955 10.5557 29.8564 12.5771L32.2734 10.1602C32.6865 9.74707 33.3545 9.74707 33.7676 10.1602L36.2549 12.6475C36.668 13.0605 36.668 13.7285 36.2549 14.1416L33.6709 16.7256L33.6182 16.7783C35.4814 19.626 36.5625 23.0449 36.5625 26.7188ZM21.0938 29.8828V16.5674C21.0938 15.9873 20.6191 15.5127 20.0391 15.5127H16.5234C15.9434 15.5127 15.4688 15.9873 15.4688 16.5674V29.8828C15.4688 30.4629 15.9434 30.9375 16.5234 30.9375H20.0391C20.6191 30.9375 21.0938 30.4629 21.0938 29.8828Z" fill="#126035"/>
</g>
</svg>
