<svg width="59" height="47" viewBox="0 0 59 47" fill="none" xmlns="http://www.w3.org/2000/svg">
<g id="&#240;&#159;&#166;&#134; icon &#34;Laptop House&#34;">
<path id="Vector" d="M24.9688 26.4375H19.0938C18.7042 26.4375 18.3306 26.2828 18.0552 26.0073C17.7797 25.7319 17.625 25.3583 17.625 24.9688V19.0938C17.625 18.7042 17.7797 18.3306 18.0552 18.0552C18.3306 17.7797 18.7042 17.625 19.0938 17.625H24.9688C25.3583 17.625 25.7319 17.7797 26.0073 18.0552C26.2828 18.3306 26.4375 18.7042 26.4375 19.0938V22.5012C27.4574 21.3189 28.916 20.5625 30.55 20.5625H43.1207L43.7311 19.8713C43.93 19.6234 44.0459 19.3193 44.0625 19.002C44.0417 18.6348 43.8865 18.2881 43.6265 18.028L38.1875 13.2188V4.40625C38.1875 4.01671 38.0328 3.64313 37.7573 3.36769C37.4819 3.09224 37.1083 2.9375 36.7188 2.9375H33.7812C33.3917 2.9375 33.0181 3.09224 32.7427 3.36769C32.4672 3.64313 32.3125 4.01671 32.3125 4.40625V8.01387L24.1885 0.818828C23.6836 0.367188 22.7151 0 22.0358 0C21.3565 0 20.3899 0.367188 19.8814 0.818828L0.438789 18.0307C0.177198 18.2889 0.0208224 18.635 0 19.002C0.0158567 19.3163 0.129824 19.6177 0.325879 19.8639L2.05074 21.8201C2.3111 22.0828 2.65993 22.2393 3.0293 22.2589C3.34118 22.2433 3.64062 22.1317 3.88668 21.9395L5.875 20.1843V35.25C5.875 36.0291 6.18449 36.7762 6.73537 37.3271C7.28626 37.878 8.03343 38.1875 8.8125 38.1875H24.9688V26.4375ZM57.7705 41.125H54.3438V26.4375C54.3438 24.8154 53.1605 23.5 51.7 23.5H30.55C29.0895 23.5 27.9062 24.8154 27.9062 26.4375V41.125H24.4795C24.2197 41.125 23.9706 41.2282 23.7869 41.4119C23.6032 41.5956 23.5 41.8447 23.5 42.1045V43.083C23.5036 44.1196 23.9166 45.1129 24.649 45.8465C25.3814 46.5801 26.3739 46.9947 27.4105 47H54.8395C55.8761 46.9947 56.8686 46.5801 57.601 45.8465C58.3334 45.1129 58.7464 44.1196 58.75 43.083V42.1045C58.75 41.8447 58.6468 41.5956 58.4631 41.4119C58.2794 41.2282 58.0303 41.125 57.7705 41.125ZM49.9375 41.125H32.3125V27.9062H49.9375V41.125Z" fill="#126035"/>
</g>
</svg>
