<svg width="40" height="45" viewBox="0 0 40 45" fill="none" xmlns="http://www.w3.org/2000/svg">
<g id="&#240;&#159;&#166;&#134; icon &#34;lock&#34;">
<path id="Vector" d="M35.1562 19.6875H33.0469V13.3594C33.0469 5.99414 27.0527 0 19.6875 0C12.3223 0 6.32812 5.99414 6.32812 13.3594V19.6875H4.21875C1.88965 19.6875 0 21.5771 0 23.9062V40.7812C0 43.1104 1.88965 45 4.21875 45H35.1562C37.4854 45 39.375 43.1104 39.375 40.7812V23.9062C39.375 21.5771 37.4854 19.6875 35.1562 19.6875ZM26.0156 19.6875H13.3594V13.3594C13.3594 9.87012 16.1982 7.03125 19.6875 7.03125C23.1768 7.03125 26.0156 9.87012 26.0156 13.3594V19.6875Z" fill="#126035"/>
</g>
</svg>
